# xmcd
#
# Track frame offsets: 
#        150
#        29770
#        44822
#        61716
#        74442
#        90310
#        107595
#        118641
#        142780
#        157108
#        174757
#
# Disc length: 2496 seconds
#
# Revision: 0
# Processed by: cddbd v1.5.2PL0 Copyright (c) Steve Scherf et al.
# Submitted via: ExactAudioCopy v0.95b4
#
DISCID=8f09be0b
DTITLE=Totimoshi - Ladrón
DYEAR=2007
DGENRE=Rock and Roll
TTITLE0=Ladrón
TTITLE1=In Virgo
TTITLE2=The Dance Of Snakes
TTITLE3=Gods Of Earth
TTITLE4=Viva Zapata
TTITLE5=A Weighted Line
TTITLE6=To The Fire
TTITLE7=The Hide
TTITLE8=These Meanings
TTITLE9=The Drunken Sun Forever Watching
TTITLE10=The Shame
EXTD=
EXTT0=
EXTT1=
EXTT2=
EXTT3=
EXTT4=
EXTT5=
EXTT6=
EXTT7=
EXTT8=
EXTT9=
EXTT10=
PLAYORDER=
